<svg sky-layer preserveAspectRatio="none" version="1.1" viewBox="0 0 297 210" xmlns="http://www.w3.org/2000/svg">
 <defs>
  <filter id="bj" x="-.67077" y="-.67077" width="2.3415" height="2.3415" color-interpolation-filters="sRGB">
   <feFlood flood-color="rgb(255,255,255)" result="flood"/>
   <feComposite in="SourceGraphic" in2="flood" operator="in" result="composite1"/>
   <feGaussianBlur in="composite1" result="blur" stdDeviation="3"/>
   <feOffset dx="0" dy="0" result="offset"/>
   <feComposite in="SourceGraphic" in2="offset" result="composite2"/>
  </filter>
  <filter id="bi" x="-1.189" y="-1.189" width="3.378" height="3.378" color-interpolation-filters="sRGB">
   <feFlood flood-color="rgb(255,255,255)" result="flood"/>
   <feComposite in="SourceGraphic" in2="flood" operator="in" result="composite1"/>
   <feGaussianBlur in="composite1" result="blur" stdDeviation="3"/>
   <feOffset dx="0" dy="0" result="offset"/>
   <feComposite in="SourceGraphic" in2="offset" result="composite2"/>
  </filter>
  <filter id="bh" x="-2.9276" y="-2.9276" width="6.8552" height="6.8552" color-interpolation-filters="sRGB">
   <feFlood flood-color="rgb(255,255,255)" result="flood"/>
   <feComposite in="SourceGraphic" in2="flood" operator="in" result="composite1"/>
   <feGaussianBlur in="composite1" result="blur" stdDeviation="3"/>
   <feOffset dx="0" dy="0" result="offset"/>
   <feComposite in="SourceGraphic" in2="offset" result="composite2"/>
  </filter>
  <filter id="bg" x="-2.9276" y="-2.9276" width="6.8552" height="6.8552" color-interpolation-filters="sRGB">
   <feFlood flood-color="rgb(255,255,255)" result="flood"/>
   <feComposite in="SourceGraphic" in2="flood" operator="in" result="composite1"/>
   <feGaussianBlur in="composite1" result="blur" stdDeviation="3"/>
   <feOffset dx="0" dy="0" result="offset"/>
   <feComposite in="SourceGraphic" in2="offset" result="composite2"/>
  </filter>
  <filter id="bf" x="-2.9276" y="-2.9276" width="6.8552" height="6.8552" color-interpolation-filters="sRGB">
   <feFlood flood-color="rgb(255,255,255)" result="flood"/>
   <feComposite in="SourceGraphic" in2="flood" operator="in" result="composite1"/>
   <feGaussianBlur in="composite1" result="blur" stdDeviation="3"/>
   <feOffset dx="0" dy="0" result="offset"/>
   <feComposite in="SourceGraphic" in2="offset" result="composite2"/>
  </filter>
  <filter id="be" x="-2.9276" y="-2.9276" width="6.8552" height="6.8552" color-interpolation-filters="sRGB">
   <feFlood flood-color="rgb(255,255,255)" result="flood"/>
   <feComposite in="SourceGraphic" in2="flood" operator="in" result="composite1"/>
   <feGaussianBlur in="composite1" result="blur" stdDeviation="3"/>
   <feOffset dx="0" dy="0" result="offset"/>
   <feComposite in="SourceGraphic" in2="offset" result="composite2"/>
  </filter>
  <filter id="bd" x="-2.7422" y="-2.7422" width="6.4845" height="6.4845" color-interpolation-filters="sRGB">
   <feFlood flood-color="rgb(255,255,255)" result="flood"/>
   <feComposite in="SourceGraphic" in2="flood" operator="in" result="composite1"/>
   <feGaussianBlur in="composite1" result="blur" stdDeviation="3"/>
   <feOffset dx="0" dy="0" result="offset"/>
   <feComposite in="SourceGraphic" in2="offset" result="composite2"/>
  </filter>
  <filter id="bc" x="-2.7422" y="-2.7422" width="6.4845" height="6.4845" color-interpolation-filters="sRGB">
   <feFlood flood-color="rgb(255,255,255)" result="flood"/>
   <feComposite in="SourceGraphic" in2="flood" operator="in" result="composite1"/>
   <feGaussianBlur in="composite1" result="blur" stdDeviation="3"/>
   <feOffset dx="0" dy="0" result="offset"/>
   <feComposite in="SourceGraphic" in2="offset" result="composite2"/>
  </filter>
  <filter id="bb" x="-2.7422" y="-2.7422" width="6.4845" height="6.4845" color-interpolation-filters="sRGB">
   <feFlood flood-color="rgb(255,255,255)" result="flood"/>
   <feComposite in="SourceGraphic" in2="flood" operator="in" result="composite1"/>
   <feGaussianBlur in="composite1" result="blur" stdDeviation="3"/>
   <feOffset dx="0" dy="0" result="offset"/>
   <feComposite in="SourceGraphic" in2="offset" result="composite2"/>
  </filter>
  <filter id="ba" x="-9.0948" y="-9.0948" width="19.19" height="19.19" color-interpolation-filters="sRGB">
   <feFlood flood-color="rgb(255,255,255)" result="flood"/>
   <feComposite in="SourceGraphic" in2="flood" operator="in" result="composite1"/>
   <feGaussianBlur in="composite1" result="blur" stdDeviation="3"/>
   <feOffset dx="0" dy="0" result="offset"/>
   <feComposite in="SourceGraphic" in2="offset" result="composite2"/>
  </filter>
  <filter id="az" x="-9.0948" y="-9.0947" width="19.19" height="19.189" color-interpolation-filters="sRGB">
   <feFlood flood-color="rgb(255,255,255)" result="flood"/>
   <feComposite in="SourceGraphic" in2="flood" operator="in" result="composite1"/>
   <feGaussianBlur in="composite1" result="blur" stdDeviation="3"/>
   <feOffset dx="0" dy="0" result="offset"/>
   <feComposite in="SourceGraphic" in2="offset" result="composite2"/>
  </filter>
  <filter id="ay" x="-9.0948" y="-9.0947" width="19.19" height="19.189" color-interpolation-filters="sRGB">
   <feFlood flood-color="rgb(255,255,255)" result="flood"/>
   <feComposite in="SourceGraphic" in2="flood" operator="in" result="composite1"/>
   <feGaussianBlur in="composite1" result="blur" stdDeviation="3"/>
   <feOffset dx="0" dy="0" result="offset"/>
   <feComposite in="SourceGraphic" in2="offset" result="composite2"/>
  </filter>
  <filter id="ax" x="-9.0948" y="-9.0947" width="19.19" height="19.189" color-interpolation-filters="sRGB">
   <feFlood flood-color="rgb(255,255,255)" result="flood"/>
   <feComposite in="SourceGraphic" in2="flood" operator="in" result="composite1"/>
   <feGaussianBlur in="composite1" result="blur" stdDeviation="3"/>
   <feOffset dx="0" dy="0" result="offset"/>
   <feComposite in="SourceGraphic" in2="offset" result="composite2"/>
  </filter>
  <filter id="aw" x="-9.0948" y="-9.0948" width="19.19" height="19.19" color-interpolation-filters="sRGB">
   <feFlood flood-color="rgb(255,255,255)" result="flood"/>
   <feComposite in="SourceGraphic" in2="flood" operator="in" result="composite1"/>
   <feGaussianBlur in="composite1" result="blur" stdDeviation="3"/>
   <feOffset dx="0" dy="0" result="offset"/>
   <feComposite in="SourceGraphic" in2="offset" result="composite2"/>
  </filter>
  <filter id="av" x="-9.0948" y="-9.0948" width="19.19" height="19.19" color-interpolation-filters="sRGB">
   <feFlood flood-color="rgb(255,255,255)" result="flood"/>
   <feComposite in="SourceGraphic" in2="flood" operator="in" result="composite1"/>
   <feGaussianBlur in="composite1" result="blur" stdDeviation="3"/>
   <feOffset dx="0" dy="0" result="offset"/>
   <feComposite in="SourceGraphic" in2="offset" result="composite2"/>
  </filter>
  <filter id="au" x="-9.0948" y="-9.0948" width="19.19" height="19.19" color-interpolation-filters="sRGB">
   <feFlood flood-color="rgb(255,255,255)" result="flood"/>
   <feComposite in="SourceGraphic" in2="flood" operator="in" result="composite1"/>
   <feGaussianBlur in="composite1" result="blur" stdDeviation="3"/>
   <feOffset dx="0" dy="0" result="offset"/>
   <feComposite in="SourceGraphic" in2="offset" result="composite2"/>
  </filter>
  <filter id="at" x="-9.0948" y="-9.0948" width="19.19" height="19.19" color-interpolation-filters="sRGB">
   <feFlood flood-color="rgb(255,255,255)" result="flood"/>
   <feComposite in="SourceGraphic" in2="flood" operator="in" result="composite1"/>
   <feGaussianBlur in="composite1" result="blur" stdDeviation="3"/>
   <feOffset dx="0" dy="0" result="offset"/>
   <feComposite in="SourceGraphic" in2="offset" result="composite2"/>
  </filter>
  <filter id="as" x="-9.0948" y="-9.0948" width="19.19" height="19.19" color-interpolation-filters="sRGB">
   <feFlood flood-color="rgb(255,255,255)" result="flood"/>
   <feComposite in="SourceGraphic" in2="flood" operator="in" result="composite1"/>
   <feGaussianBlur in="composite1" result="blur" stdDeviation="3"/>
   <feOffset dx="0" dy="0" result="offset"/>
   <feComposite in="SourceGraphic" in2="offset" result="composite2"/>
  </filter>
  <filter id="ar" x="-9.0949" y="-9.0948" width="19.19" height="19.19" color-interpolation-filters="sRGB">
   <feFlood flood-color="rgb(255,255,255)" result="flood"/>
   <feComposite in="SourceGraphic" in2="flood" operator="in" result="composite1"/>
   <feGaussianBlur in="composite1" result="blur" stdDeviation="3"/>
   <feOffset dx="0" dy="0" result="offset"/>
   <feComposite in="SourceGraphic" in2="offset" result="composite2"/>
  </filter>
  <filter id="aq" x="-9.0948" y="-9.0948" width="19.19" height="19.19" color-interpolation-filters="sRGB">
   <feFlood flood-color="rgb(255,255,255)" result="flood"/>
   <feComposite in="SourceGraphic" in2="flood" operator="in" result="composite1"/>
   <feGaussianBlur in="composite1" result="blur" stdDeviation="3"/>
   <feOffset dx="0" dy="0" result="offset"/>
   <feComposite in="SourceGraphic" in2="offset" result="composite2"/>
  </filter>
  <filter id="ap" x="-9.0948" y="-9.0948" width="19.19" height="19.19" color-interpolation-filters="sRGB">
   <feFlood flood-color="rgb(255,255,255)" result="flood"/>
   <feComposite in="SourceGraphic" in2="flood" operator="in" result="composite1"/>
   <feGaussianBlur in="composite1" result="blur" stdDeviation="3"/>
   <feOffset dx="0" dy="0" result="offset"/>
   <feComposite in="SourceGraphic" in2="offset" result="composite2"/>
  </filter>
  <filter id="ao" x="-9.0948" y="-9.0947" width="19.19" height="19.189" color-interpolation-filters="sRGB">
   <feFlood flood-color="rgb(255,255,255)" result="flood"/>
   <feComposite in="SourceGraphic" in2="flood" operator="in" result="composite1"/>
   <feGaussianBlur in="composite1" result="blur" stdDeviation="3"/>
   <feOffset dx="0" dy="0" result="offset"/>
   <feComposite in="SourceGraphic" in2="offset" result="composite2"/>
  </filter>
  <filter id="an" x="-9.0948" y="-9.0947" width="19.19" height="19.189" color-interpolation-filters="sRGB">
   <feFlood flood-color="rgb(255,255,255)" result="flood"/>
   <feComposite in="SourceGraphic" in2="flood" operator="in" result="composite1"/>
   <feGaussianBlur in="composite1" result="blur" stdDeviation="3"/>
   <feOffset dx="0" dy="0" result="offset"/>
   <feComposite in="SourceGraphic" in2="offset" result="composite2"/>
  </filter>
  <filter id="am" x="-9.0948" y="-9.0947" width="19.19" height="19.189" color-interpolation-filters="sRGB">
   <feFlood flood-color="rgb(255,255,255)" result="flood"/>
   <feComposite in="SourceGraphic" in2="flood" operator="in" result="composite1"/>
   <feGaussianBlur in="composite1" result="blur" stdDeviation="3"/>
   <feOffset dx="0" dy="0" result="offset"/>
   <feComposite in="SourceGraphic" in2="offset" result="composite2"/>
  </filter>
  <filter id="al" x="-2.7422" y="-2.7422" width="6.4845" height="6.4845" color-interpolation-filters="sRGB">
   <feFlood flood-color="rgb(255,255,255)" result="flood"/>
   <feComposite in="SourceGraphic" in2="flood" operator="in" result="composite1"/>
   <feGaussianBlur in="composite1" result="blur" stdDeviation="3"/>
   <feOffset dx="0" dy="0" result="offset"/>
   <feComposite in="SourceGraphic" in2="offset" result="composite2"/>
  </filter>
  <filter id="ak" x="-2.7422" y="-2.7422" width="6.4845" height="6.4845" color-interpolation-filters="sRGB">
   <feFlood flood-color="rgb(255,255,255)" result="flood"/>
   <feComposite in="SourceGraphic" in2="flood" operator="in" result="composite1"/>
   <feGaussianBlur in="composite1" result="blur" stdDeviation="3"/>
   <feOffset dx="0" dy="0" result="offset"/>
   <feComposite in="SourceGraphic" in2="offset" result="composite2"/>
  </filter>
  <filter id="aj" x="-9.0948" y="-9.0947" width="19.19" height="19.189" color-interpolation-filters="sRGB">
   <feFlood flood-color="rgb(255,255,255)" result="flood"/>
   <feComposite in="SourceGraphic" in2="flood" operator="in" result="composite1"/>
   <feGaussianBlur in="composite1" result="blur" stdDeviation="3"/>
   <feOffset dx="0" dy="0" result="offset"/>
   <feComposite in="SourceGraphic" in2="offset" result="composite2"/>
  </filter>
  <filter id="ai" x="-9.0948" y="-9.0948" width="19.19" height="19.19" color-interpolation-filters="sRGB">
   <feFlood flood-color="rgb(255,255,255)" result="flood"/>
   <feComposite in="SourceGraphic" in2="flood" operator="in" result="composite1"/>
   <feGaussianBlur in="composite1" result="blur" stdDeviation="3"/>
   <feOffset dx="0" dy="0" result="offset"/>
   <feComposite in="SourceGraphic" in2="offset" result="composite2"/>
  </filter>
  <filter id="ah" x="-9.0948" y="-9.0947" width="19.19" height="19.189" color-interpolation-filters="sRGB">
   <feFlood flood-color="rgb(255,255,255)" result="flood"/>
   <feComposite in="SourceGraphic" in2="flood" operator="in" result="composite1"/>
   <feGaussianBlur in="composite1" result="blur" stdDeviation="3"/>
   <feOffset dx="0" dy="0" result="offset"/>
   <feComposite in="SourceGraphic" in2="offset" result="composite2"/>
  </filter>
  <filter id="ag" x="-9.0948" y="-9.0947" width="19.19" height="19.189" color-interpolation-filters="sRGB">
   <feFlood flood-color="rgb(255,255,255)" result="flood"/>
   <feComposite in="SourceGraphic" in2="flood" operator="in" result="composite1"/>
   <feGaussianBlur in="composite1" result="blur" stdDeviation="3"/>
   <feOffset dx="0" dy="0" result="offset"/>
   <feComposite in="SourceGraphic" in2="offset" result="composite2"/>
  </filter>
  <filter id="af" x="-9.0948" y="-9.0947" width="19.19" height="19.189" color-interpolation-filters="sRGB">
   <feFlood flood-color="rgb(255,255,255)" result="flood"/>
   <feComposite in="SourceGraphic" in2="flood" operator="in" result="composite1"/>
   <feGaussianBlur in="composite1" result="blur" stdDeviation="3"/>
   <feOffset dx="0" dy="0" result="offset"/>
   <feComposite in="SourceGraphic" in2="offset" result="composite2"/>
  </filter>
  <filter id="ae" x="-9.0948" y="-9.0948" width="19.19" height="19.19" color-interpolation-filters="sRGB">
   <feFlood flood-color="rgb(255,255,255)" result="flood"/>
   <feComposite in="SourceGraphic" in2="flood" operator="in" result="composite1"/>
   <feGaussianBlur in="composite1" result="blur" stdDeviation="3"/>
   <feOffset dx="0" dy="0" result="offset"/>
   <feComposite in="SourceGraphic" in2="offset" result="composite2"/>
  </filter>
  <filter id="ad" x="-9.0948" y="-9.0948" width="19.19" height="19.19" color-interpolation-filters="sRGB">
   <feFlood flood-color="rgb(255,255,255)" result="flood"/>
   <feComposite in="SourceGraphic" in2="flood" operator="in" result="composite1"/>
   <feGaussianBlur in="composite1" result="blur" stdDeviation="3"/>
   <feOffset dx="0" dy="0" result="offset"/>
   <feComposite in="SourceGraphic" in2="offset" result="composite2"/>
  </filter>
  <filter id="ac" x="-9.0948" y="-9.0948" width="19.19" height="19.19" color-interpolation-filters="sRGB">
   <feFlood flood-color="rgb(255,255,255)" result="flood"/>
   <feComposite in="SourceGraphic" in2="flood" operator="in" result="composite1"/>
   <feGaussianBlur in="composite1" result="blur" stdDeviation="3"/>
   <feOffset dx="0" dy="0" result="offset"/>
   <feComposite in="SourceGraphic" in2="offset" result="composite2"/>
  </filter>
  <filter id="ab" x="-9.0948" y="-9.0947" width="19.19" height="19.189" color-interpolation-filters="sRGB">
   <feFlood flood-color="rgb(255,255,255)" result="flood"/>
   <feComposite in="SourceGraphic" in2="flood" operator="in" result="composite1"/>
   <feGaussianBlur in="composite1" result="blur" stdDeviation="3"/>
   <feOffset dx="0" dy="0" result="offset"/>
   <feComposite in="SourceGraphic" in2="offset" result="composite2"/>
  </filter>
  <filter id="aa" x="-9.0948" y="-9.0948" width="19.19" height="19.19" color-interpolation-filters="sRGB">
   <feFlood flood-color="rgb(255,255,255)" result="flood"/>
   <feComposite in="SourceGraphic" in2="flood" operator="in" result="composite1"/>
   <feGaussianBlur in="composite1" result="blur" stdDeviation="3"/>
   <feOffset dx="0" dy="0" result="offset"/>
   <feComposite in="SourceGraphic" in2="offset" result="composite2"/>
  </filter>
  <filter id="z" x="-9.0948" y="-9.0948" width="19.19" height="19.19" color-interpolation-filters="sRGB">
   <feFlood flood-color="rgb(255,255,255)" result="flood"/>
   <feComposite in="SourceGraphic" in2="flood" operator="in" result="composite1"/>
   <feGaussianBlur in="composite1" result="blur" stdDeviation="3"/>
   <feOffset dx="0" dy="0" result="offset"/>
   <feComposite in="SourceGraphic" in2="offset" result="composite2"/>
  </filter>
  <filter id="y" x="-9.0948" y="-9.0948" width="19.19" height="19.19" color-interpolation-filters="sRGB">
   <feFlood flood-color="rgb(255,255,255)" result="flood"/>
   <feComposite in="SourceGraphic" in2="flood" operator="in" result="composite1"/>
   <feGaussianBlur in="composite1" result="blur" stdDeviation="3"/>
   <feOffset dx="0" dy="0" result="offset"/>
   <feComposite in="SourceGraphic" in2="offset" result="composite2"/>
  </filter>
  <filter id="x" x="-9.0948" y="-9.0948" width="19.19" height="19.19" color-interpolation-filters="sRGB">
   <feFlood flood-color="rgb(255,255,255)" result="flood"/>
   <feComposite in="SourceGraphic" in2="flood" operator="in" result="composite1"/>
   <feGaussianBlur in="composite1" result="blur" stdDeviation="3"/>
   <feOffset dx="0" dy="0" result="offset"/>
   <feComposite in="SourceGraphic" in2="offset" result="composite2"/>
  </filter>
  <filter id="w" x="-9.0948" y="-9.0948" width="19.19" height="19.19" color-interpolation-filters="sRGB">
   <feFlood flood-color="rgb(255,255,255)" result="flood"/>
   <feComposite in="SourceGraphic" in2="flood" operator="in" result="composite1"/>
   <feGaussianBlur in="composite1" result="blur" stdDeviation="3"/>
   <feOffset dx="0" dy="0" result="offset"/>
   <feComposite in="SourceGraphic" in2="offset" result="composite2"/>
  </filter>
  <filter id="v" x="-9.0948" y="-9.0948" width="19.19" height="19.19" color-interpolation-filters="sRGB">
   <feFlood flood-color="rgb(255,255,255)" result="flood"/>
   <feComposite in="SourceGraphic" in2="flood" operator="in" result="composite1"/>
   <feGaussianBlur in="composite1" result="blur" stdDeviation="3"/>
   <feOffset dx="0" dy="0" result="offset"/>
   <feComposite in="SourceGraphic" in2="offset" result="composite2"/>
  </filter>
  <filter id="u" x="-9.0948" y="-9.0948" width="19.19" height="19.19" color-interpolation-filters="sRGB">
   <feFlood flood-color="rgb(255,255,255)" result="flood"/>
   <feComposite in="SourceGraphic" in2="flood" operator="in" result="composite1"/>
   <feGaussianBlur in="composite1" result="blur" stdDeviation="3"/>
   <feOffset dx="0" dy="0" result="offset"/>
   <feComposite in="SourceGraphic" in2="offset" result="composite2"/>
  </filter>
  <filter id="t" x="-9.0948" y="-9.0947" width="19.19" height="19.189" color-interpolation-filters="sRGB">
   <feFlood flood-color="rgb(255,255,255)" result="flood"/>
   <feComposite in="SourceGraphic" in2="flood" operator="in" result="composite1"/>
   <feGaussianBlur in="composite1" result="blur" stdDeviation="3"/>
   <feOffset dx="0" dy="0" result="offset"/>
   <feComposite in="SourceGraphic" in2="offset" result="composite2"/>
  </filter>
  <filter id="s" x="-9.0948" y="-9.0947" width="19.19" height="19.189" color-interpolation-filters="sRGB">
   <feFlood flood-color="rgb(255,255,255)" result="flood"/>
   <feComposite in="SourceGraphic" in2="flood" operator="in" result="composite1"/>
   <feGaussianBlur in="composite1" result="blur" stdDeviation="3"/>
   <feOffset dx="0" dy="0" result="offset"/>
   <feComposite in="SourceGraphic" in2="offset" result="composite2"/>
  </filter>
  <filter id="r" x="-4.4171" y="-4.4171" width="9.8342" height="9.8342" color-interpolation-filters="sRGB">
   <feFlood flood-color="rgb(255,255,255)" result="flood"/>
   <feComposite in="SourceGraphic" in2="flood" operator="in" result="composite1"/>
   <feGaussianBlur in="composite1" result="blur" stdDeviation="3"/>
   <feOffset dx="0" dy="0" result="offset"/>
   <feComposite in="SourceGraphic" in2="offset" result="composite2"/>
  </filter>
  <filter id="q" x="-4.4171" y="-4.4171" width="9.8342" height="9.8342" color-interpolation-filters="sRGB">
   <feFlood flood-color="rgb(255,255,255)" result="flood"/>
   <feComposite in="SourceGraphic" in2="flood" operator="in" result="composite1"/>
   <feGaussianBlur in="composite1" result="blur" stdDeviation="3"/>
   <feOffset dx="0" dy="0" result="offset"/>
   <feComposite in="SourceGraphic" in2="offset" result="composite2"/>
  </filter>
  <filter id="p" x="-4.4171" y="-4.4171" width="9.8342" height="9.8342" color-interpolation-filters="sRGB">
   <feFlood flood-color="rgb(255,255,255)" result="flood"/>
   <feComposite in="SourceGraphic" in2="flood" operator="in" result="composite1"/>
   <feGaussianBlur in="composite1" result="blur" stdDeviation="3"/>
   <feOffset dx="0" dy="0" result="offset"/>
   <feComposite in="SourceGraphic" in2="offset" result="composite2"/>
  </filter>
  <filter id="o" x="-4.4171" y="-4.4171" width="9.8342" height="9.8342" color-interpolation-filters="sRGB">
   <feFlood flood-color="rgb(255,255,255)" result="flood"/>
   <feComposite in="SourceGraphic" in2="flood" operator="in" result="composite1"/>
   <feGaussianBlur in="composite1" result="blur" stdDeviation="3"/>
   <feOffset dx="0" dy="0" result="offset"/>
   <feComposite in="SourceGraphic" in2="offset" result="composite2"/>
  </filter>
  <filter id="n" x="-4.4171" y="-4.4171" width="9.8342" height="9.8342" color-interpolation-filters="sRGB">
   <feFlood flood-color="rgb(255,255,255)" result="flood"/>
   <feComposite in="SourceGraphic" in2="flood" operator="in" result="composite1"/>
   <feGaussianBlur in="composite1" result="blur" stdDeviation="3"/>
   <feOffset dx="0" dy="0" result="offset"/>
   <feComposite in="SourceGraphic" in2="offset" result="composite2"/>
  </filter>
  <filter id="m" x="-4.4171" y="-4.4171" width="9.8342" height="9.8342" color-interpolation-filters="sRGB">
   <feFlood flood-color="rgb(255,255,255)" result="flood"/>
   <feComposite in="SourceGraphic" in2="flood" operator="in" result="composite1"/>
   <feGaussianBlur in="composite1" result="blur" stdDeviation="3"/>
   <feOffset dx="0" dy="0" result="offset"/>
   <feComposite in="SourceGraphic" in2="offset" result="composite2"/>
  </filter>
  <filter id="l" x="-4.4171" y="-4.4171" width="9.8342" height="9.8342" color-interpolation-filters="sRGB">
   <feFlood flood-color="rgb(255,255,255)" result="flood"/>
   <feComposite in="SourceGraphic" in2="flood" operator="in" result="composite1"/>
   <feGaussianBlur in="composite1" result="blur" stdDeviation="3"/>
   <feOffset dx="0" dy="0" result="offset"/>
   <feComposite in="SourceGraphic" in2="offset" result="composite2"/>
  </filter>
  <filter id="k" x="-4.4171" y="-4.4171" width="9.8342" height="9.8342" color-interpolation-filters="sRGB">
   <feFlood flood-color="rgb(255,255,255)" result="flood"/>
   <feComposite in="SourceGraphic" in2="flood" operator="in" result="composite1"/>
   <feGaussianBlur in="composite1" result="blur" stdDeviation="3"/>
   <feOffset dx="0" dy="0" result="offset"/>
   <feComposite in="SourceGraphic" in2="offset" result="composite2"/>
  </filter>
  <filter id="j" x="-4.4171" y="-4.4171" width="9.8341" height="9.8342" color-interpolation-filters="sRGB">
   <feFlood flood-color="rgb(255,255,255)" result="flood"/>
   <feComposite in="SourceGraphic" in2="flood" operator="in" result="composite1"/>
   <feGaussianBlur in="composite1" result="blur" stdDeviation="3"/>
   <feOffset dx="0" dy="0" result="offset"/>
   <feComposite in="SourceGraphic" in2="offset" result="composite2"/>
  </filter>
  <filter id="i" x="-4.4171" y="-4.4171" width="9.8342" height="9.8342" color-interpolation-filters="sRGB">
   <feFlood flood-color="rgb(255,255,255)" result="flood"/>
   <feComposite in="SourceGraphic" in2="flood" operator="in" result="composite1"/>
   <feGaussianBlur in="composite1" result="blur" stdDeviation="3"/>
   <feOffset dx="0" dy="0" result="offset"/>
   <feComposite in="SourceGraphic" in2="offset" result="composite2"/>
  </filter>
  <filter id="h" x="-4.4171" y="-4.4171" width="9.8342" height="9.8342" color-interpolation-filters="sRGB">
   <feFlood flood-color="rgb(255,255,255)" result="flood"/>
   <feComposite in="SourceGraphic" in2="flood" operator="in" result="composite1"/>
   <feGaussianBlur in="composite1" result="blur" stdDeviation="3"/>
   <feOffset dx="0" dy="0" result="offset"/>
   <feComposite in="SourceGraphic" in2="offset" result="composite2"/>
  </filter>
  <filter id="g" x="-4.4171" y="-4.4171" width="9.8342" height="9.8342" color-interpolation-filters="sRGB">
   <feFlood flood-color="rgb(255,255,255)" result="flood"/>
   <feComposite in="SourceGraphic" in2="flood" operator="in" result="composite1"/>
   <feGaussianBlur in="composite1" result="blur" stdDeviation="3"/>
   <feOffset dx="0" dy="0" result="offset"/>
   <feComposite in="SourceGraphic" in2="offset" result="composite2"/>
  </filter>
  <filter id="f" x="-4.4171" y="-4.4171" width="9.8342" height="9.8341" color-interpolation-filters="sRGB">
   <feFlood flood-color="rgb(255,255,255)" result="flood"/>
   <feComposite in="SourceGraphic" in2="flood" operator="in" result="composite1"/>
   <feGaussianBlur in="composite1" result="blur" stdDeviation="3"/>
   <feOffset dx="0" dy="0" result="offset"/>
   <feComposite in="SourceGraphic" in2="offset" result="composite2"/>
  </filter>
  <filter id="e" x="-4.4171" y="-4.4171" width="9.8342" height="9.8342" color-interpolation-filters="sRGB">
   <feFlood flood-color="rgb(255,255,255)" result="flood"/>
   <feComposite in="SourceGraphic" in2="flood" operator="in" result="composite1"/>
   <feGaussianBlur in="composite1" result="blur" stdDeviation="3"/>
   <feOffset dx="0" dy="0" result="offset"/>
   <feComposite in="SourceGraphic" in2="offset" result="composite2"/>
  </filter>
  <filter id="d" x="-4.4171" y="-4.4171" width="9.8342" height="9.8342" color-interpolation-filters="sRGB">
   <feFlood flood-color="rgb(255,255,255)" result="flood"/>
   <feComposite in="SourceGraphic" in2="flood" operator="in" result="composite1"/>
   <feGaussianBlur in="composite1" result="blur" stdDeviation="3"/>
   <feOffset dx="0" dy="0" result="offset"/>
   <feComposite in="SourceGraphic" in2="offset" result="composite2"/>
  </filter>
  <filter id="c" x="-4.4171" y="-4.4171" width="9.8342" height="9.8342" color-interpolation-filters="sRGB">
   <feFlood flood-color="rgb(255,255,255)" result="flood"/>
   <feComposite in="SourceGraphic" in2="flood" operator="in" result="composite1"/>
   <feGaussianBlur in="composite1" result="blur" stdDeviation="3"/>
   <feOffset dx="0" dy="0" result="offset"/>
   <feComposite in="SourceGraphic" in2="offset" result="composite2"/>
  </filter>
  <filter id="b" x="-4.4171" y="-4.4171" width="9.8342" height="9.8342" color-interpolation-filters="sRGB">
   <feFlood flood-color="rgb(255,255,255)" result="flood"/>
   <feComposite in="SourceGraphic" in2="flood" operator="in" result="composite1"/>
   <feGaussianBlur in="composite1" result="blur" stdDeviation="3"/>
   <feOffset dx="0" dy="0" result="offset"/>
   <feComposite in="SourceGraphic" in2="offset" result="composite2"/>
  </filter>
  <filter id="a" x="-.11436" y="-.21766" width="1.2287" height="1.4353" color-interpolation-filters="sRGB">
   <feGaussianBlur result="result8" stdDeviation="15"/>
   <feTurbulence baseFrequency="0.025" numOctaves="5" result="result7" seed="27" type="fractalNoise"/>
   <feComposite in="result7" in2="result8" result="result6"/>
   <feColorMatrix result="result9" values="1 0 0 0 0 0 1 0 0 0 0 0 1 0 0 0 0 0 6 -4 "/>
   <feDisplacementMap in="result7" in2="result9" result="result4" scale="45"/>
   <feComposite in="result8" in2="result4" operator="in" result="result2"/>
   <feComposite in="result2" in2="result9" operator="in" result="fbSourceGraphic"/>
   <feComposite in="fbSourceGraphic" in2="fbSourceGraphic" k1="0.5" k2="1" operator="arithmetic" result="result91"/>
   <feBlend in="fbSourceGraphic" in2="result91" mode="multiply"/>
  </filter>
 </defs>
 <path d="m0-1.6877e-6h297v210h-297z"/>
 <g transform="translate(110.69 243.43)">
  <g transform="translate(-99.316 4.6608)" filter="url(#a)">
   <rect x="-17.784" y="-248.39" width="314.78" height="155.91"/>
   <path d="m13.657-251.7 16.599 100.78 68.174 64.617 7.7999-32.605-51.075-37.347z" fill="#fff" fill-opacity=".31606"/>
   <path d="m93.948-234.46 60.362 40.311 142.69 68.174-57.43-41.497-60.947-26.677z" fill="#1485b3" fill-opacity=".72539"/>
   <path d="m251.98-240.43-22.217 12.226 10.647 14.518 23.891 2.3472 5.2836-15.608z" fill="#1fe63c" fill-opacity=".29534"/>
   <path d="m185.75-138.45-14.722 28.574 15.059-10.509 11.35-5.5905 13.33 5.4533 18.998 13.679-12.416-18.542-14.043-9.7274z" fill="#e93a3a" fill-opacity=".3057"/>
  </g>
 </g>
 <g>
  <path d="m35.152 34.267c0.0291-3.1824-1.8569-5.3459-5.367-5.367 3.4997-0.0212 5.427-2.0745 5.367-5.367 0.0409 3.304 2.096 5.3233 5.367 5.367-3.2625-0.0345-5.3509 2.1738-5.367 5.367z" fill="#e8e7f0" filter="url(#bj)"/>
  <path d="m103.47 26.92c0.0164-1.7953-1.0476-3.0158-3.0277-3.0277 1.9743-0.012 3.0616-1.1703 3.0277-3.0277 0.0231 1.8639 1.1824 3.0031 3.0277 3.0277-1.8405-0.0194-3.0187 1.2263-3.0277 3.0277z" fill="#a18d7c" filter="url(#bi)"/>
  <path d="m207.29 51.846c7e-3 -0.72916-0.42546-1.2249-1.2297-1.2297 0.80185-5e-3 1.2434-0.47532 1.2297-1.2297 9e-3 0.75701 0.48024 1.2197 1.2297 1.2297-0.74751-8e-3 -1.226 0.49806-1.2297 1.2297z" fill="#9d8984" filter="url(#bh)"/>
  <path d="m165.68 53.942c7e-3 -0.72915-0.42545-1.2248-1.2297-1.2297 0.80185-5e-3 1.2434-0.47532 1.2297-1.2297 9e-3 0.75702 0.48025 1.2197 1.2297 1.2297-0.74751-8e-3 -1.226 0.49805-1.2297 1.2297z" fill="#a2b2b0" filter="url(#bg)"/>
  <path d="m187.79 32.354c7e-3 -0.72916-0.42546-1.2249-1.2297-1.2297 0.80185-5e-3 1.2434-0.47532 1.2297-1.2297 9e-3 0.75701 0.48024 1.2197 1.2297 1.2297-0.74751-8e-3 -1.226 0.49806-1.2297 1.2297z" fill="#91a67b" filter="url(#bf)"/>
  <path d="m235.58 52.58c7e-3 -0.72915-0.42546-1.2249-1.2297-1.2297 0.80185-5e-3 1.2434-0.47532 1.2297-1.2297 9e-3 0.75701 0.48024 1.2197 1.2297 1.2297-0.74751-8e-3 -1.226 0.49806-1.2297 1.2297z" fill="#88adac" filter="url(#be)"/>
  <path d="m115.68 103.75c7e-3 -0.77843-0.45422-1.3076-1.3128-1.3128 0.85604-5e-3 1.3275-0.50744 1.3128-1.3128 0.01 0.80818 0.5127 1.3021 1.3128 1.3128-0.79803-8e-3 -1.3089 0.53172-1.3128 1.3128z" fill="#b9aec7" filter="url(#bd)"/>
  <path d="m94.257 66.522c7e-3 -0.77843-0.45422-1.3076-1.3128-1.3128 0.85604-5e-3 1.3275-0.50744 1.3128-1.3128 0.01 0.80818 0.5127 1.3021 1.3128 1.3128-0.79803-8e-3 -1.3089 0.53172-1.3128 1.3128z" fill="#b7c6af" filter="url(#bc)"/>
  <path d="m146.13 45.181c7e-3 -0.77843-0.45422-1.3076-1.3128-1.3128 0.85604-5e-3 1.3275-0.50744 1.3128-1.3128 0.01 0.80818 0.5127 1.3021 1.3128 1.3128-0.79803-8e-3 -1.3089 0.53172-1.3128 1.3128z" fill="#e1e8e2" filter="url(#bb)"/>
  <path d="m151.14 48.68c2e-3 -0.23471-0.13696-0.39428-0.39583-0.39583 0.25811-2e-3 0.40026-0.15301 0.39583-0.39583 3e-3 0.24368 0.15458 0.39261 0.39583 0.39583-0.24062-2e-3 -0.39465 0.16032-0.39583 0.39583z" fill="#a37077" filter="url(#ba)"/>
  <path d="m144.2 17.582c2e-3 -0.23471-0.13696-0.39428-0.39583-0.39584 0.25811-1e-3 0.40026-0.153 0.39583-0.39583 3e-3 0.24368 0.15458 0.39261 0.39583 0.39583-0.24062-2e-3 -0.39465 0.16033-0.39583 0.39584z" fill="#a2c9a3" filter="url(#az)"/>
  <path d="m253.19 38.122c2e-3 -0.23471-0.13696-0.39428-0.39583-0.39584 0.25811-1e-3 0.40026-0.153 0.39583-0.39583 3e-3 0.24368 0.15458 0.39261 0.39583 0.39583-0.24062-2e-3 -0.39465 0.16033-0.39583 0.39584z" fill="#cfd6d6" filter="url(#ay)"/>
  <path d="m273.73 15.906c2e-3 -0.23472-0.13696-0.39428-0.39583-0.39584 0.25811-2e-3 0.40026-0.153 0.39583-0.39583 3e-3 0.24368 0.15458 0.39261 0.39583 0.39583-0.24062-2e-3 -0.39465 0.16032-0.39583 0.39584z" fill="#d1cdb8" filter="url(#ax)"/>
  <path d="m197.44 11.295c2e-3 -0.23471-0.13696-0.39428-0.39583-0.39583 0.25811-1e-3 0.40026-0.15301 0.39583-0.39583 3e-3 0.24368 0.15458 0.39261 0.39583 0.39583-0.24062-2e-3 -0.39465 0.16032-0.39583 0.39583z" fill="#be91b1" filter="url(#aw)"/>
  <path d="m220.49 34.35c2e-3 -0.23471-0.13696-0.39428-0.39583-0.39584 0.25811-1e-3 0.40026-0.153 0.39583-0.39582 3e-3 0.24368 0.15458 0.3926 0.39583 0.39582-0.24062-2e-3 -0.39465 0.16033-0.39583 0.39584z" fill="#c3b5a2" filter="url(#av)"/>
  <path d="m146.71 25.128c2e-3 -0.23471-0.13696-0.39428-0.39583-0.39583 0.25811-1e-3 0.40026-0.153 0.39583-0.39583 3e-3 0.24368 0.15458 0.39261 0.39583 0.39583-0.24062-2e-3 -0.39465 0.16032-0.39583 0.39583z" fill="#e1e1e4" filter="url(#au)"/>
  <path d="m86.352 10.037c2e-3 -0.23471-0.13696-0.39428-0.39583-0.39583 0.25811-2e-3 0.40026-0.153 0.39583-0.39583 3e-3 0.24368 0.15458 0.39261 0.39583 0.39583-0.24062-2e-3 -0.39465 0.16032-0.39583 0.39583z" fill="#c4b9b3" filter="url(#at)"/>
  <path d="m82.579 47.344c2e-3 -0.23471-0.13696-0.39427-0.39583-0.39583 0.25811-1e-3 0.40026-0.153 0.39583-0.39583 3e-3 0.24368 0.15458 0.39261 0.39583 0.39583-0.24062-2e-3 -0.39465 0.16032-0.39583 0.39583z" fill="#dedfe5" filter="url(#as)"/>
  <path d="m120.31 55.728c2e-3 -0.23471-0.13696-0.39427-0.39583-0.39583 0.25811-2e-3 0.40026-0.153 0.39583-0.39583 3e-3 0.24368 0.15458 0.39261 0.39582 0.39583-0.24062-2e-3 -0.39465 0.16032-0.39582 0.39583z" fill="#cebccf" filter="url(#ar)"/>
  <path d="m59.943 16.744c2e-3 -0.23471-0.13696-0.39428-0.39583-0.39583 0.25811-2e-3 0.40026-0.15301 0.39583-0.39583 3e-3 0.24368 0.15458 0.39261 0.39583 0.39583-0.24062-2e-3 -0.39465 0.16032-0.39583 0.39583z" fill="#b8cfc7" filter="url(#aq)"/>
  <path d="m40.242 80.46c2e-3 -0.23471-0.13696-0.39427-0.39583-0.39583 0.25811-1e-3 0.40026-0.153 0.39583-0.39583 3e-3 0.24368 0.15458 0.39261 0.39583 0.39583-0.24062-2e-3 -0.39465 0.16032-0.39583 0.39583z" fill="#dad7c7" filter="url(#ap)"/>
  <path d="m10.06 6.6836c2e-3 -0.23471-0.13696-0.39428-0.39583-0.39584 0.25811-1e-3 0.40026-0.153 0.39583-0.39583 3e-3 0.24368 0.15458 0.39261 0.39583 0.39583-0.24062-2e-3 -0.39465 0.16033-0.39583 0.39584z" fill="#ab89ae" filter="url(#ao)"/>
  <path d="m64.135 49.021c2e-3 -0.23472-0.13696-0.39428-0.39583-0.39584 0.25811-1e-3 0.40026-0.153 0.39583-0.39583 3e-3 0.24368 0.15458 0.39261 0.39583 0.39583-0.24062-2e-3 -0.39465 0.16033-0.39583 0.39584z" fill="#94bf99" filter="url(#an)"/>
  <path d="m18.444 64.531c2e-3 -0.23471-0.13696-0.39428-0.39583-0.39584 0.25811-2e-3 0.40026-0.153 0.39583-0.39583 3e-3 0.24368 0.15458 0.39261 0.39583 0.39583-0.24062-2e-3 -0.39465 0.16033-0.39583 0.39584z" fill="#959380" filter="url(#am)"/>
  <path d="m243.35 21.468c7e-3 -0.77843-0.45422-1.3076-1.3128-1.3128 0.85604-5e-3 1.3275-0.50744 1.3128-1.3128 0.01 0.80818 0.5127 1.3021 1.3128 1.3128-0.79803-8e-3 -1.3089 0.53172-1.3128 1.3128z" fill="#bdc0d2" filter="url(#al)"/>
  <path d="m288.4 85.492c7e-3 -0.77843-0.45422-1.3076-1.3128-1.3128 0.85604-5e-3 1.3275-0.50744 1.3128-1.3128 0.01 0.80818 0.5127 1.3021 1.3128 1.3128-0.79803-8e-3 -1.3089 0.53172-1.3128 1.3128z" fill="#a4bfa6" filter="url(#ak)"/>
  <path d="m178.15 91.778c2e-3 -0.23471-0.13696-0.39428-0.39583-0.39584 0.25811-2e-3 0.40026-0.153 0.39583-0.39583 3e-3 0.24368 0.15458 0.39261 0.39583 0.39583-0.24062-2e-3 -0.39465 0.16033-0.39583 0.39584z" fill="#bbd4d2" filter="url(#aj)"/>
  <path d="m253.61 84.652c2e-3 -0.23471-0.13696-0.39427-0.39583-0.39583 0.25811-2e-3 0.40026-0.153 0.39583-0.39583 3e-3 0.24368 0.15458 0.39261 0.39583 0.39583-0.24062-2e-3 -0.39465 0.16033-0.39583 0.39583z" fill="#b1abc8" filter="url(#ai)"/>
  <path d="m158.87 75.43c2e-3 -0.23471-0.13696-0.39428-0.39583-0.39584 0.25811-2e-3 0.40026-0.153 0.39583-0.39583 3e-3 0.24368 0.15458 0.39261 0.39583 0.39583-0.24062-2e-3 -0.39465 0.16033-0.39583 0.39584z" fill="#d0e7d4" filter="url(#ah)"/>
  <path d="m217.14 82.137c2e-3 -0.23471-0.13696-0.39428-0.39583-0.39584 0.25811-2e-3 0.40026-0.153 0.39583-0.39583 3e-3 0.24368 0.15458 0.39261 0.39583 0.39583-0.24062-2e-3 -0.39465 0.16033-0.39583 0.39584z" fill="#e7e5d6" filter="url(#ag)"/>
  <path d="m206.24 23.032c2e-3 -0.23471-0.13696-0.39428-0.39583-0.39584 0.25811-1e-3 0.40026-0.153 0.39583-0.39583 3e-3 0.24368 0.15458 0.39261 0.39583 0.39583-0.24062-2e-3 -0.39465 0.16033-0.39583 0.39584z" fill="#c3bec5" filter="url(#af)"/>
  <path d="m171.03 12.971c2e-3 -0.23471-0.13696-0.39428-0.39583-0.39583 0.25811-2e-3 0.40026-0.153 0.39583-0.39583 3e-3 0.24368 0.15458 0.39261 0.39583 0.39583-0.24062-2e-3 -0.39465 0.16032-0.39583 0.39583z" fill="#eddee9" filter="url(#ae)"/>
  <path d="m74.615 28.9c2e-3 -0.23471-0.13696-0.39428-0.39583-0.39584 0.25811-1e-3 0.40026-0.153 0.39583-0.39582 3e-3 0.24368 0.15458 0.39261 0.39583 0.39582-0.24062-2e-3 -0.39465 0.16033-0.39583 0.39584z" fill="#abcad2" filter="url(#ad)"/>
  <path d="m71.261 88.424c2e-3 -0.23471-0.13696-0.39428-0.39583-0.39583 0.25811-2e-3 0.40026-0.153 0.39583-0.39583 3e-3 0.24368 0.15458 0.39261 0.39583 0.39583-0.24062-2e-3 -0.39465 0.16032-0.39583 0.39583z" fill="#f0f8ef" filter="url(#ac)"/>
  <path d="m17.186 106.87c2e-3 -0.23471-0.13696-0.39428-0.39583-0.39584 0.25811-1e-3 0.40026-0.153 0.39583-0.39583 3e-3 0.24368 0.15458 0.39261 0.39583 0.39583-0.24062-2e-3 -0.39465 0.16033-0.39583 0.39584z" fill="#c2a1b9" filter="url(#ab)"/>
  <path d="m72.519 134.12c2e-3 -0.23471-0.13696-0.39427-0.39583-0.39583 0.25811-1e-3 0.40026-0.153 0.39583-0.39583 3e-3 0.24368 0.15458 0.39261 0.39583 0.39583-0.24062-2e-3 -0.39465 0.16032-0.39583 0.39583z" fill="#ddddd0" filter="url(#aa)"/>
  <path d="m134.98 82.975c2e-3 -0.23471-0.13696-0.39428-0.39583-0.39583 0.25811-2e-3 0.40026-0.153 0.39583-0.39583 3e-3 0.24368 0.15458 0.39261 0.39583 0.39583-0.24062-2e-3 -0.39465 0.16032-0.39583 0.39583z" fill="#bfc4d2" filter="url(#z)"/>
  <path d="m180.25 139.56c2e-3 -0.23471-0.13696-0.39427-0.39583-0.39583 0.25811-1e-3 0.40026-0.153 0.39583-0.39583 3e-3 0.24368 0.15458 0.39261 0.39583 0.39583-0.24062-2e-3 -0.39465 0.16032-0.39583 0.39583z" fill="#a7c4c4" filter="url(#y)"/>
  <path d="m121.98 135.39c2e-3 0.23471-0.13696 0.39428-0.39583 0.39583 0.25811 2e-3 0.40026 0.15301 0.39583 0.39583 3e-3 -0.24368 0.15458-0.39261 0.39583-0.39583-0.24062 2e-3 -0.39465-0.16032-0.39583-0.39583z" fill="#c4d1c0" filter="url(#x)"/>
  <path d="m228.45 143.76c2e-3 -0.23471-0.13696-0.39427-0.39583-0.39583 0.25811-1e-3 0.40026-0.153 0.39583-0.39583 3e-3 0.24368 0.15458 0.39261 0.39583 0.39583-0.24062-2e-3 -0.39465 0.16032-0.39583 0.39583z" fill="#8daea3" filter="url(#w)"/>
  <path d="m258.22 110.64c2e-3 -0.23471-0.13696-0.39427-0.39583-0.39583 0.25811-2e-3 0.40026-0.153 0.39583-0.39583 3e-3 0.24368 0.15458 0.39261 0.39583 0.39583-0.24062-2e-3 -0.39465 0.16032-0.39583 0.39583z" fill="#92afa2" filter="url(#v)"/>
  <path d="m279.6 147.95c2e-3 -0.23471-0.13696-0.39427-0.39583-0.39583 0.25811-1e-3 0.40026-0.153 0.39583-0.39583 3e-3 0.24368 0.15458 0.39261 0.39583 0.39583-0.24062-2e-3 -0.39465 0.16033-0.39583 0.39583z" fill="#e2e9eb" filter="url(#u)"/>
  <path d="m241.03 127.41c2e-3 -0.23471-0.13696-0.39428-0.39583-0.39584 0.25811-2e-3 0.40026-0.153 0.39583-0.39583 3e-3 0.24368 0.15458 0.39261 0.39583 0.39583-0.24062-2e-3 -0.39465 0.16033-0.39583 0.39584z" fill="#eeeeeb" filter="url(#t)"/>
  <path d="m280.85 44.829c2e-3 -0.23472-0.13696-0.39428-0.39583-0.39584 0.25811-1e-3 0.40026-0.153 0.39583-0.39583 3e-3 0.24368 0.15458 0.39261 0.39583 0.39583-0.24062-2e-3 -0.39465 0.16033-0.39583 0.39584z" fill="#bec9aa" filter="url(#s)"/>
  <path d="m156.77 104.98c4e-3 -0.48327-0.282-0.8118-0.81502-0.81501 0.53145-2e-3 0.82414-0.31503 0.81502-0.81502 6e-3 0.50174 0.31828 0.80839 0.81501 0.81502-0.49544-4e-3 -0.81258 0.3301-0.81501 0.81501z" fill="#d1d2bd" filter="url(#r)"/>
  <path d="m191.78 117.35c4e-3 -0.48327-0.282-0.8118-0.81502-0.81501 0.53145-2e-3 0.82414-0.31503 0.81502-0.81502 6e-3 0.50174 0.31828 0.80839 0.81501 0.81502-0.49544-4e-3 -0.81258 0.3301-0.81501 0.81501z" fill="#e0dee3" filter="url(#q)"/>
  <path d="m198.9 99.323c4e-3 -0.48327-0.282-0.8118-0.81502-0.81501 0.53145-2e-3 0.82414-0.31503 0.81502-0.81502 6e-3 0.50174 0.31828 0.80839 0.81501 0.81502-0.49544-4e-3 -0.81258 0.3301-0.81501 0.81501z" fill="#e5d8dc" filter="url(#p)"/>
  <path d="m190.31 69.351c4e-3 -0.48327-0.282-0.8118-0.81502-0.81501 0.53145-2e-3 0.82414-0.31503 0.81502-0.81502 6e-3 0.50174 0.31828 0.80839 0.81501 0.81502-0.49544-4e-3 -0.81258 0.3301-0.81501 0.81501z" fill="#dfd9e4" filter="url(#o)"/>
  <path d="m126.38 35.398c4e-3 -0.48327-0.282-0.8118-0.81502-0.81501 0.53145-2e-3 0.82414-0.31503 0.81502-0.81502 6e-3 0.50174 0.31828 0.80839 0.81501 0.81502-0.49544-4e-3 -0.81258 0.3301-0.81501 0.81501z" fill="#e6efe8" filter="url(#n)"/>
  <path d="m54.703 113.37c4e-3 -0.48327-0.282-0.8118-0.81502-0.81501 0.53145-2e-3 0.82414-0.31503 0.81502-0.81502 6e-3 0.50174 0.31828 0.80839 0.81501 0.81502-0.49544-4e-3 -0.81258 0.3301-0.81501 0.81501z" fill="#dbe8dd" filter="url(#m)"/>
  <path d="m32.277 56.986c4e-3 -0.48327-0.282-0.8118-0.81502-0.81501 0.53145-2e-3 0.82414-0.31503 0.81502-0.81502 6e-3 0.50174 0.31828 0.80839 0.81501 0.81502-0.49544-4e-3 -0.81258 0.3301-0.81501 0.81501z" fill="#a7c4b3" filter="url(#l)"/>
  <path d="m254.65 64.531c4e-3 -0.48327-0.282-0.8118-0.81502-0.81501 0.53145-2e-3 0.82414-0.31503 0.81502-0.81502 6e-3 0.50174 0.31828 0.80839 0.81501 0.81502-0.49544-4e-3 -0.81258 0.3301-0.81501 0.81501z" fill="#87c087" filter="url(#k)"/>
  <path d="m226.78 12.762c4e-3 -0.48327-0.282-0.8118-0.81502-0.81501 0.53145-2e-3 0.82414-0.31503 0.81502-0.81502 6e-3 0.50174 0.31828 0.80839 0.81502 0.81502-0.49545-4e-3 -0.81259 0.3301-0.81502 0.81501z" fill="#cfc1d2" filter="url(#j)"/>
  <path d="m241.66 104.35c4e-3 -0.48327-0.282-0.8118-0.81502-0.81501 0.53145-2e-3 0.82414-0.31503 0.81502-0.81502 6e-3 0.50174 0.31828 0.80839 0.81501 0.81502-0.49544-4e-3 -0.81258 0.3301-0.81501 0.81501z" fill="#cecec5" filter="url(#i)"/>
  <path d="m282.11 63.064c4e-3 -0.48327-0.282-0.8118-0.81502-0.81501 0.53145-2e-3 0.82414-0.31503 0.81502-0.81502 6e-3 0.50174 0.31828 0.80839 0.81501 0.81502-0.49544-4e-3 -0.81258 0.3301-0.81501 0.81501z" fill="#eceaed" filter="url(#h)"/>
  <path d="m161.18 48.811c4e-3 -0.48327-0.282-0.8118-0.81502-0.81501 0.53145-2e-3 0.82414-0.31503 0.81502-0.81502 6e-3 0.50174 0.31828 0.80839 0.81501 0.81502-0.49544-4e-3 -0.81258 0.3301-0.81501 0.81501z" fill="#9db9c0" filter="url(#g)"/>
  <path d="m116.95 99.742c4e-3 -0.48327-0.282-0.8118-0.81502-0.81502 0.53145-2e-3 0.82414-0.31502 0.81502-0.81502 6e-3 0.50174 0.31828 0.8084 0.81501 0.81502-0.49544-4e-3 -0.81258 0.3301-0.81501 0.81502z" fill="#eeeeef" filter="url(#f)"/>
  <path d="m105.63 93.245c4e-3 -0.48327-0.282-0.8118-0.81502-0.81501 0.53145-2e-3 0.82414-0.31503 0.81502-0.81502 6e-3 0.50174 0.31828 0.80839 0.81501 0.81502-0.49544-4e-3 -0.81258 0.3301-0.81501 0.81501z" fill="#d2d4c9" filter="url(#e)"/>
  <path d="m112.55 108.96c4e-3 -0.48327-0.282-0.8118-0.81502-0.81501 0.53145-2e-3 0.82414-0.31503 0.81502-0.81502 6e-3 0.50174 0.31828 0.80839 0.81501 0.81502-0.49544-4e-3 -0.81258 0.3301-0.81501 0.81501z" fill="#c2c8bb" filter="url(#d)"/>
  <path d="m203.3 125.73c4e-3 -0.48327-0.282-0.8118-0.81502-0.81501 0.53145-2e-3 0.82414-0.31503 0.81502-0.81502 6e-3 0.50174 0.31828 0.80839 0.81501 0.81502-0.49544-4e-3 -0.81258 0.3301-0.81501 0.81501z" fill="#bccbd1" filter="url(#c)"/>
  <path d="m265.13 24.918c4e-3 -0.48327-0.282-0.8118-0.81502-0.81501 0.53145-2e-3 0.82414-0.31503 0.81502-0.81502 6e-3 0.50174 0.31828 0.80839 0.81501 0.81502-0.49544-4e-3 -0.81258 0.3301-0.81501 0.81501z" fill="#b5c2b8" filter="url(#b)"/>
 </g>
</svg>
